<?xml version="1.0" ?><!-- Uploaded to: SVG Repo, www.svgrepo.com, Generator: SVG Repo Mixer Tools -->
<svg fill="#000000" width="800px" height="800px" viewBox="0 0 100 100" data-name="Layer 1" id="Layer_1" xmlns="http://www.w3.org/2000/svg"><title/><path d="M72.7,18H27.3A5,5,0,0,0,22.35,23v54.1a5,5,0,0,0,4.95,5H72.7a5,5,0,0,0,5-5V23A5,5,0,0,0,72.7,18Zm1,59.05a1,1,0,0,1-1,1H27.3a1,1,0,0,1-.95-1V23A1,1,0,0,1,27.3,22H72.7a1,1,0,0,1,1,.95ZM50,26.29a19.68,19.68,0,0,0-11.74,35.5L36.65,64.3a2,2,0,0,0,.61,2.76,1.94,1.94,0,0,0,1.07.32A2,2,0,0,0,40,66.46l1.67-2.61A19.7,19.7,0,1,0,50,26.29Zm0,35.42a15.7,15.7,0,0,1-6.14-1.25l1.9-3a2,2,0,1,0-3.36-2.15l-2,3.09A15.68,15.68,0,1,1,50,61.71Zm0-22A6.33,6.33,0,1,0,56.33,46,6.34,6.34,0,0,0,50,39.67Zm0,8.66A2.33,2.33,0,1,1,52.33,46,2.33,2.33,0,0,1,50,48.33ZM27.68,26.72a3.42,3.42,0,1,1,3.42,3.42A3.43,3.43,0,0,1,27.68,26.72Zm44.65,0a3.43,3.43,0,1,1-3.43-3.43A3.43,3.43,0,0,1,72.33,26.72ZM34.52,73.28a3.42,3.42,0,1,1-3.42-3.42A3.43,3.43,0,0,1,34.52,73.28Zm37.81,0a3.43,3.43,0,1,1-3.43-3.42A3.44,3.44,0,0,1,72.33,73.28Z"/></svg>