<?xml version="1.0" ?><!-- Uploaded to: SVG Repo, www.svgrepo.com, Generator: SVG Repo Mixer Tools -->
<svg fill="#000000" width="800px" height="800px" viewBox="0 0 100 100" data-name="Layer 1" id="Layer_1" xmlns="http://www.w3.org/2000/svg"><title/><path d="M69.28,46.18H66.09V20a2,2,0,0,0-2-2H35.91a2,2,0,0,0-2,2V46.18H30.72a2,2,0,0,0-2,2V80a2,2,0,0,0,2,2H69.28a2,2,0,0,0,2-2V48.18A2,2,0,0,0,69.28,46.18ZM37.91,22H62.09V46.18H37.91ZM67.28,78H32.72V50.18H67.28ZM47.13,31v4.63a.77.77,0,0,1-.77.77H42.85a.76.76,0,0,1-.77-.77V31a.77.77,0,0,1,.77-.77h3.51A.78.78,0,0,1,47.13,31Zm10.79,0v4.63a.76.76,0,0,1-.77.77H53.64a.77.77,0,0,1-.77-.77V31a.78.78,0,0,1,.77-.77h3.51A.77.77,0,0,1,57.92,31Z"/></svg>