<?xml version="1.0" encoding="UTF-8" standalone="no" ?>
<!DOCTYPE svg PUBLIC "-//W3C//DTD SVG 1.1//EN" "http://www.w3.org/Graphics/SVG/1.1/DTD/svg11.dtd">
<svg xmlns="http://www.w3.org/2000/svg" xmlns:xlink="http://www.w3.org/1999/xlink" version="1.1" width="1080" height="1080" viewBox="-184 -112 1080 1080" xml:space="preserve">
<desc>Created with Fabric.js 5.2.4</desc>
<defs>
</defs>
<g transform="matrix(1 0 0 1 540 540)" id="7e70bcd0-760e-4279-9af4-63bfcf987596"  >
<rect style="stroke: none; stroke-width: 1; stroke-dasharray: none; stroke-linecap: butt; stroke-dashoffset: 0; stroke-linejoin: miter; stroke-miterlimit: 4; fill: rgb(255,255,255); fill-rule: nonzero; opacity: 1; visibility: hidden;" vector-effect="non-scaling-stroke"  x="-540" y="-540" rx="0" ry="0" width="1080" height="1080" />
</g>
<g transform="matrix(1 0 0 1 540 540)" id="4f6618a3-88a1-408a-a661-40fec9db286a"  >
</g>
<g transform="matrix(1 0 0 1 540 540)"  >
<rect style="stroke: none; stroke-width: 1; stroke-dasharray: none; stroke-linecap: butt; stroke-dashoffset: 0; stroke-linejoin: miter; stroke-miterlimit: 4; fill: rgb(255,255,255); fill-rule: nonzero; opacity: 1; visibility: hidden;" vector-effect="non-scaling-stroke"  x="-540" y="-540" rx="0" ry="0" width="1080" height="1080" />
</g>
<g transform="matrix(7.67 0 0 7.67 355.59 439.42)"  >
<linearGradient id="SVGID_SVGID_SVGID_1__3_3" gradientUnits="userSpaceOnUse" gradientTransform="matrix(1 0 0 1 0 0)"  x1="68.07" y1="81.489" x2="154.073" y2="-4.514">
<stop offset="0%" style="stop-color:rgb(227,41,41);stop-opacity: 1"/>
<stop offset="100%" style="stop-color:rgb(255,141,48);stop-opacity: 1"/>
</linearGradient>
<path style="stroke: none; stroke-width: 1; stroke-dasharray: none; stroke-linecap: butt; stroke-dashoffset: 0; stroke-linejoin: miter; stroke-miterlimit: 4; fill: url(#SVGID_SVGID_SVGID_1__3_3); fill-rule: nonzero; opacity: 1;" vector-effect="non-scaling-stroke"  transform=" translate(-111.1, -38.5)" d="M 107.8 19.2 L 114.3 19.2 L 114.3 57.7 L 107.8 57.7 L 107.8 19.2 z M 50.9 57.7 L 44.4 57.7 L 44.4 19.2 L 50.9 19.2 L 50.9 57.7 z M 76.1 62.300000000000004 L 82.6 62.300000000000004 L 82.6 77 L 76.1 77 L 76.1 62.3 z M 60.2 45.8 L 66.7 45.8 L 66.7 69.6 L 60.2 69.6 L 60.2 45.8 z M 91.9 45.8 L 98.4 45.8 L 98.4 69.6 L 91.9 69.6 L 91.9 45.8 z M 171.3 19.199999999999996 L 177.8 19.199999999999996 L 177.8 57.699999999999996 L 171.3 57.699999999999996 L 171.3 19.2 z M 146.10000000000002 14.699999999999996 L 139.60000000000002 14.699999999999996 L 139.60000000000002 0 L 146.10000000000002 0 L 146.10000000000002 14.7 z M 162 31.1 L 155.5 31.1 L 155.5 7.4 L 162 7.4 L 162 31.1 z M 130.2 31.1 L 123.69999999999999 31.1 L 123.69999999999999 7.4 L 130.2 7.4 L 130.2 31.1 z" stroke-linecap="round" />
</g>
</svg>